<svg width="221" height="62" viewBox="0 0 221 62" fill="none" xmlns="http://www.w3.org/2000/svg">
<path d="M21.1822 41.7231V51.3632C21.1822 57.2121 16.44 61.9543 10.5911 61.9543C4.74222 61.9543 0 57.2121 0 51.3632V23.3292H0.0216145L4.24941 27.0036L21.1822 41.7231Z" fill="#0147B7"/>
<path d="M57.0104 23.3292V51.3632C57.0104 57.2121 52.2682 61.9543 46.4193 61.9543C40.5704 61.9543 35.8282 57.2121 35.8282 51.3632V41.7231L52.761 27.0036L56.9888 23.3292H57.0104Z" fill="#E81E74"/>
<path d="M57.0104 12.1588C57.0104 15.6128 55.5709 19.0452 52.761 21.4876L47.3358 26.2039L28.5052 42.5747L9.67465 26.2039L4.24941 21.4876C1.43953 19.0452 0 15.6128 0 12.1588C0 9.28406 0.998591 6.39636 3.03035 4.05767C3.12546 3.94959 3.21624 3.84584 3.31567 3.7421C8.78414 -2.13705 18.4588 -0.783983 22.3408 6.24506L28.5052 17.4025L34.6697 6.24506C38.5516 -0.783983 48.2263 -2.13273 53.6948 3.7421C53.7899 3.84584 53.885 3.94959 53.9801 4.05767C56.0162 6.39636 57.0104 9.28406 57.0104 12.1588Z" fill="#079FCE"/>
<path d="M105.405 19.927V42.1122C105.405 43.7808 104.013 45.1728 102.306 45.1728C100.598 45.1728 99.2842 43.7808 99.2842 42.1122V30.3841L93.003 42.2332C92.4453 43.3053 91.49 43.9451 90.4179 43.9451C89.3458 43.9451 88.4294 43.3485 87.8717 42.2332L81.5516 30.3841V42.1122C81.5516 43.7808 80.1986 45.1728 78.5688 45.1728C76.8569 45.1728 75.4693 43.7808 75.4693 42.1122V19.927C75.4693 18.0595 76.9002 17.1042 78.2143 17.1042C79.4464 17.1042 80.6006 18.0595 81.1971 19.0927L90.4222 35.5154L99.6473 19.0927C100.244 18.0595 101.437 17.1042 102.669 17.1042C103.983 17.1042 105.414 18.0595 105.414 19.927H105.405Z" fill="#121F41"/>
<path d="M129.06 33.8035C129.06 36.1076 127.828 36.9031 125.442 36.9031L114.548 36.7431C115.067 39.2072 117.012 40.5602 119.757 40.5602C121.072 40.5602 121.465 40.3614 122.619 39.9637C123.415 39.6438 124.011 39.2893 124.768 39.2893C125.961 39.2893 126.717 40.1625 126.717 41.2778C126.717 41.9954 126.441 42.7865 125.325 43.6641C123.933 44.5805 122.027 45.2549 119.52 45.2549C114.151 45.2549 108.505 42.0343 108.505 34.7978C108.505 27.5613 114.509 24.1418 119.04 24.1418C123.57 24.1418 129.06 27.7601 129.06 33.8035ZM114.548 32.8482H123.337C122.939 30.2242 121.11 29.191 119.044 29.191C116.978 29.191 114.907 30.2242 114.553 32.8482H114.548Z" fill="#121F41"/>
<path d="M151.604 19.5294V42.4321C151.604 44.0229 150.212 45.2939 148.66 45.2939C147.108 45.2939 145.76 44.0229 145.76 42.471C145.284 43.5863 143.373 45.3328 140.235 45.3328C135.86 45.3328 130.651 41.9523 130.651 34.7157C130.651 27.4792 135.899 24.1419 140.235 24.1419C142.937 24.1419 145.007 25.6117 145.721 27.2025V19.5294C145.721 17.9774 147.074 16.6676 148.621 16.6676C150.169 16.6676 151.604 17.9818 151.604 19.5294ZM145.997 34.7157C145.997 30.5398 143.296 29.1089 141.307 29.1089C138.882 29.1089 136.457 31.0153 136.457 34.7157C136.457 38.4161 138.882 40.3614 141.307 40.3614C143.296 40.3614 145.997 38.9305 145.997 34.7157Z" fill="#121F41"/>
<path d="M180.546 19.806C180.546 20.4026 180.386 21.038 180.148 21.5179L170.525 43.0675C169.89 44.5806 168.974 45.2938 167.625 45.2938C166.276 45.2938 165.399 44.5762 164.724 43.0675L155.14 21.5179C154.903 21.0424 154.743 20.4026 154.743 19.806C154.743 18.3362 156.013 17.1042 157.643 17.1042C158.957 17.1042 160.029 17.8607 160.505 19.0106L167.62 35.831L174.779 19.0106C175.255 17.8564 176.288 17.1042 177.641 17.1042C179.271 17.1042 180.542 18.3362 180.542 19.806H180.546Z" fill="#121F41"/>
<path d="M199.632 27.1246V42.432C199.632 44.0229 198.24 45.2938 196.688 45.2938C195.136 45.2938 193.787 44.0229 193.787 42.471C193.312 43.5863 191.401 45.3327 188.262 45.3327C183.888 45.3327 178.679 41.9522 178.679 34.7157C178.679 27.4791 183.927 24.1418 188.262 24.1418C191.007 24.1418 193.113 25.6505 193.787 27.2846V27.1246C193.787 25.5727 195.101 24.2629 196.688 24.2629C198.274 24.2629 199.632 25.577 199.632 27.1246ZM194.025 34.7157C194.025 30.5397 191.323 29.1089 189.335 29.1089C186.909 29.1089 184.484 31.0153 184.484 34.7157C184.484 38.4161 186.909 40.3614 189.335 40.3614C191.323 40.3614 194.025 38.9305 194.025 34.7157Z" fill="#121F41"/>
<path d="M220.663 42.6698C220.663 44.1007 219.392 45.2549 218.039 45.2549C217.165 45.2549 216.53 44.8183 215.972 44.1829L211.321 38.615L206.708 44.1829C206.19 44.8183 205.515 45.2549 204.681 45.2549C203.289 45.2549 202.018 44.1007 202.018 42.6698C202.018 42.1122 202.217 41.5978 202.614 41.1568L208.139 34.7157L202.653 28.3956C202.295 27.959 202.096 27.4403 202.096 26.8437C202.096 25.4128 203.367 24.2586 204.72 24.2586C205.554 24.2586 206.311 24.6563 206.786 25.3307L211.321 30.8554L215.933 25.3307C216.452 24.6563 217.126 24.2586 217.961 24.2586C219.314 24.2586 220.624 25.4128 220.624 26.8437C220.624 27.4403 220.386 27.959 220.027 28.3956L214.58 34.7157L220.066 41.1568C220.464 41.5934 220.663 42.1122 220.663 42.6698Z" fill="#121F41"/>
<path d="M211.338 24.358C212.897 24.358 214.161 23.0942 214.161 21.5351C214.161 19.9761 212.897 18.7123 211.338 18.7123C209.779 18.7123 208.515 19.9761 208.515 21.5351C208.515 23.0942 209.779 24.358 211.338 24.358Z" fill="#121F41"/>
</svg>
