<svg width="93" height="100" viewBox="0 0 93 100" fill="none" xmlns="http://www.w3.org/2000/svg">
<path d="M34.215 67.3249V82.8949C34.215 92.3449 26.555 99.9999 17.11 99.9999C7.66499 99.9999 0 92.3399 0 82.8949V37.61H0.03L6.85499 43.55L34.21 67.3249H34.215Z" fill="#0147B7"/>
<path d="M92.0897 37.61V82.8949C92.0897 92.3449 84.4297 99.9999 74.9848 99.9999C65.5398 99.9999 57.8798 92.3399 57.8798 82.8949V67.3249L85.2347 43.55L92.0597 37.61H92.0897Z" fill="#E81E74"/>
<path d="M92.0899 19.5651C92.0899 25.1401 89.7649 30.6901 85.2249 34.6351L76.4649 42.2501L46.0449 68.695L15.625 42.2501L6.86499 34.6351C2.325 30.6901 0 25.1451 0 19.5651C0 14.9201 1.61 10.2551 4.89499 6.48011C5.04499 6.30512 5.19999 6.13512 5.35499 5.97012C14.19 -3.52487 29.815 -1.33988 36.09 10.0101L46.0449 28.0301L55.9999 10.0101C62.2699 -1.33988 77.8999 -3.52487 86.7349 5.97012C86.8899 6.13512 87.0449 6.30512 87.1949 6.48011C90.4799 10.2551 92.0899 14.9201 92.0899 19.5651Z" fill="#079FCE"/>
</svg>
