<svg width="24" height="24" viewBox="0 0 24 24" fill="none" xmlns="http://www.w3.org/2000/svg">
<path fill-rule="evenodd" clip-rule="evenodd" d="M3.6001 12C3.6001 11.5029 4.00304 11.1 4.5001 11.1L17.2656 11.1L12.2763 6.34875C11.918 6.00423 11.9068 5.4345 12.2513 5.0762C12.5959 4.71791 13.1656 4.70674 13.5239 5.05125L20.1239 11.3512C20.3004 11.5209 20.4001 11.7552 20.4001 12C20.4001 12.2448 20.3004 12.4791 20.1239 12.6487L13.5239 18.9487C13.1656 19.2933 12.5959 19.2821 12.2513 18.9238C11.9068 18.5655 11.918 17.9958 12.2763 17.6512L17.2656 12.9L4.5001 12.9C4.00304 12.9 3.6001 12.4971 3.6001 12Z" fill="white"/>
</svg>
