<svg width="22" height="20" viewBox="0 0 22 20" fill="none" xmlns="http://www.w3.org/2000/svg">
<path d="M6.36642 0C3.21298 0 0.647461 2.49222 0.647461 5.55556V14.4444C0.647461 17.5078 3.21298 20 6.36642 20H15.5167C18.6702 20 21.2357 17.5078 21.2357 14.4444V5.55556C21.2357 2.49222 18.6702 0 15.5167 0H6.36642ZM6.36642 2.22222H15.5167C17.4086 2.22222 18.9481 3.71778 18.9481 5.55556V14.4444C18.9481 16.2822 17.4086 17.7778 15.5167 17.7778H6.36642C4.47459 17.7778 2.93504 16.2822 2.93504 14.4444V5.55556C2.93504 3.71778 4.47459 2.22222 6.36642 2.22222ZM16.6605 3.33333C16.3572 3.33333 16.0663 3.4504 15.8517 3.65877C15.6372 3.86714 15.5167 4.14976 15.5167 4.44444C15.5167 4.73913 15.6372 5.02174 15.8517 5.23012C16.0663 5.43849 16.3572 5.55556 16.6605 5.55556C16.9639 5.55556 17.2548 5.43849 17.4693 5.23012C17.6838 5.02174 17.8043 4.73913 17.8043 4.44444C17.8043 4.14976 17.6838 3.86714 17.4693 3.65877C17.2548 3.4504 16.9639 3.33333 16.6605 3.33333ZM10.9416 4.44444C7.78815 4.44444 5.22262 6.93667 5.22262 10C5.22262 13.0633 7.78815 15.5556 10.9416 15.5556C14.095 15.5556 16.6605 13.0633 16.6605 10C16.6605 6.93667 14.095 4.44444 10.9416 4.44444ZM10.9416 6.66667C12.8334 6.66667 14.373 8.16222 14.373 10C14.373 11.8378 12.8334 13.3333 10.9416 13.3333C9.04975 13.3333 7.51021 11.8378 7.51021 10C7.51021 8.16222 9.04975 6.66667 10.9416 6.66667Z" fill="#000101"/>
</svg>
