<svg width="22" height="21" viewBox="0 0 22 21" fill="none" xmlns="http://www.w3.org/2000/svg">
<path d="M6.54244 0.5C3.38901 0.5 0.823486 2.99222 0.823486 6.05556V14.9444C0.823486 18.0078 3.38901 20.5 6.54244 20.5H15.6928C18.8462 20.5 21.4117 18.0078 21.4117 14.9444V6.05556C21.4117 2.99222 18.8462 0.5 15.6928 0.5H6.54244ZM6.54244 2.72222H15.6928C17.5846 2.72222 19.1241 4.21778 19.1241 6.05556V14.9444C19.1241 16.7822 17.5846 18.2778 15.6928 18.2778H6.54244C4.65061 18.2778 3.11107 16.7822 3.11107 14.9444V6.05556C3.11107 4.21778 4.65061 2.72222 6.54244 2.72222ZM16.8366 3.83333C16.5332 3.83333 16.2423 3.9504 16.0278 4.15877C15.8133 4.36714 15.6928 4.64976 15.6928 4.94444C15.6928 5.23913 15.8133 5.52174 16.0278 5.73012C16.2423 5.93849 16.5332 6.05556 16.8366 6.05556C17.1399 6.05556 17.4308 5.93849 17.6453 5.73012C17.8598 5.52174 17.9803 5.23913 17.9803 4.94444C17.9803 4.64976 17.8598 4.36714 17.6453 4.15877C17.4308 3.9504 17.1399 3.83333 16.8366 3.83333ZM11.1176 4.94444C7.96417 4.94444 5.39865 7.43667 5.39865 10.5C5.39865 13.5633 7.96417 16.0556 11.1176 16.0556C14.271 16.0556 16.8366 13.5633 16.8366 10.5C16.8366 7.43667 14.271 4.94444 11.1176 4.94444ZM11.1176 7.16667C13.0094 7.16667 14.549 8.66222 14.549 10.5C14.549 12.3378 13.0094 13.8333 11.1176 13.8333C9.22577 13.8333 7.68623 12.3378 7.68623 10.5C7.68623 8.66222 9.22577 7.16667 11.1176 7.16667Z" fill="#E81E74"/>
</svg>
