<svg width="104" height="87" viewBox="0 0 104 87" fill="none" xmlns="http://www.w3.org/2000/svg">
<path d="M47.1854 92.8467V114.319C47.1854 127.351 36.6216 137.908 23.5962 137.908C10.5707 137.908 0 127.345 0 114.319V51.8672H0.0413726L9.45363 60.059L47.1785 92.8467H47.1854Z" fill="#CDECF5"/>
<path d="M127 51.8672V114.319C127 127.351 116.436 137.908 103.411 137.908C90.3851 137.908 79.8213 127.345 79.8213 114.319V92.8467L117.546 60.059L126.958 51.8672H127Z" fill="#CDECF5"/>
<path d="M127 26.982C127 34.6704 123.794 42.3243 117.533 47.7648L105.452 58.2665L63.5 94.7365L21.5482 58.2665L9.46742 47.7648C3.20637 42.3243 0 34.6773 0 26.982C0 20.5761 2.22033 14.1427 6.75062 8.93664C6.95749 8.6953 7.17125 8.46086 7.385 8.23331C19.5692 -4.86111 41.1174 -1.84781 49.7712 13.8048L63.5 38.6559L77.2288 13.8048C85.8757 -1.84781 107.431 -4.86111 119.615 8.23331C119.829 8.46086 120.043 8.6953 120.249 8.93664C124.78 14.1427 127 20.5761 127 26.982Z" fill="#CDECF5"/>
</svg>
