<svg width="93" height="100" viewBox="0 0 93 100" fill="none" xmlns="http://www.w3.org/2000/svg">
<path d="M34.3048 67.325V82.895C34.3048 92.345 26.6448 100 17.1998 100C7.75484 100 0.0898438 92.34 0.0898438 82.895V37.61H0.119844L6.94484 43.55L34.2998 67.325H34.3048Z" fill="black"/>
<path d="M92.1796 37.61V82.895C92.1796 92.345 84.5197 100 75.0747 100C65.6297 100 57.9697 92.34 57.9697 82.895V67.325L85.3247 43.55L92.1497 37.61H92.1796Z" fill="black"/>
<path d="M92.1797 19.5651C92.1797 25.1401 89.8547 30.6901 85.3147 34.6351L76.5547 42.2501L46.1348 68.695L15.7148 42.2501L6.95483 34.6351C2.41484 30.6901 0.0898438 25.1451 0.0898438 19.5651C0.0898438 14.9201 1.69984 10.2551 4.98484 6.48011C5.13484 6.30512 5.28984 6.13512 5.44484 5.97012C14.2798 -3.52487 29.9048 -1.33988 36.1798 10.0101L46.1348 28.0301L56.0898 10.0101C62.3598 -1.33988 77.9897 -3.52487 86.8247 5.97012C86.9797 6.13512 87.1347 6.30512 87.2847 6.48011C90.5697 10.2551 92.1797 14.9201 92.1797 19.5651Z" fill="black"/>
</svg>
